<svg xmlns="http://www.w3.org/2000/svg" xmlns:xlink="http://www.w3.org/1999/xlink" width="210" height="158.627" viewBox="0 0 210 158.627">
  <defs>
    <clipPath id="clip-path">
      <rect id="Rectangle_180" data-name="Rectangle 180" width="210" height="158.627" fill="none"/>
    </clipPath>
  </defs>
  <g id="Group_325" data-name="Group 325" clip-path="url(#clip-path)">
    <path id="Path_105" data-name="Path 105" d="M102.646,279.35c-13.717,0-13.717,13.8-13.717,18.337,0,9.121,3.983,13.942,11.519,13.942,13.763,0,13.763-13.8,13.763-18.337,0-9.121-4-13.942-11.565-13.942m4.716,14.032c0,8.3-2.145,12.341-6.555,12.341-3.367,0-5.074-2.719-5.074-8.08,0-8.3,2.144-12.341,6.554-12.341,3.368,0,5.075,2.719,5.075,8.08" transform="translate(-51.734 -162.511)" fill="#161615"/>
    <path id="Path_106" data-name="Path 106" d="M171.8,300.8l-5.755,15.359L162.359,300.8h-7l6.841,23.031-4.687,7.7,4.6,2.085.216-.227a43.073,43.073,0,0,0,7.49-11.574l8.774-21.018Z" transform="translate(-90.382 -174.987)" fill="#161615"/>
    <path id="Path_107" data-name="Path 107" d="M222.7,298.652c-7.976,0-12.193,4.682-12.193,13.538,0,6.979,3.457,10.668,10,10.668a34.644,34.644,0,0,0,8.039-.953l.32-.075.274-4.341H220.82a3.51,3.51,0,0,1-2.634-.914,5.345,5.345,0,0,1-1.14-3.763h6.959c4.855,0,7.529-2.53,7.529-7.125,0-3.5-2.73-7.035-8.829-7.035m2.518,7.574c0,.69-.263,2.293-2.7,2.293h-5.07c.479-2.162,1.72-4.5,4.846-4.5,2.018,0,2.921,1.108,2.921,2.2" transform="translate(-122.464 -173.74)" fill="#161615"/>
    <path id="Path_108" data-name="Path 108" d="M281.884,299.724a8.953,8.953,0,0,0-6.6,2.563l-.22-2.116h-5.743l-1.632,23.31h6.269l1.06-14.991a4.109,4.109,0,0,1,4.179-3.668,3.4,3.4,0,0,1,2.513.9,2.278,2.278,0,0,1,.543,1.809l-1.11,15.946h6.268l1.151-16.337a7.19,7.19,0,0,0-1.615-5.542,6.625,6.625,0,0,0-5.06-1.88" transform="translate(-155.726 -174.364)" fill="#161615"/>
    <path id="Path_109" data-name="Path 109" d="M334.746,285.783h-3.671l-2.947,6.252-3.51.911-.335,4h3.371l-.82,11.992a5.969,5.969,0,0,0,1.284,4.74c1.052,1.121,2.731,1.691,4.988,1.691a13.889,13.889,0,0,0,4.942-.952l.28-.094.271-4.243h-3.835a1.989,1.989,0,0,1-1.416-.355,1.548,1.548,0,0,1-.251-1.167l.824-11.612h5.6l.381-4.981H334.3Z" transform="translate(-188.651 -166.254)" fill="#161615"/>
    <path id="Path_110" data-name="Path 110" d="M386.459,305.687c0-3.5-2.729-7.035-8.828-7.035-7.977,0-12.192,4.682-12.192,13.538,0,6.979,3.456,10.668,9.995,10.668a34.657,34.657,0,0,0,8.038-.953l.32-.075.275-4.341h-8.319a3.514,3.514,0,0,1-2.635-.914,5.345,5.345,0,0,1-1.14-3.763h6.959c4.855,0,7.528-2.53,7.528-7.125m-6.31.539c0,.69-.263,2.293-2.7,2.293h-5.071c.479-2.162,1.72-4.5,4.845-4.5,2.019,0,2.923,1.108,2.923,2.2" transform="translate(-212.594 -173.74)" fill="#161615"/>
    <path id="Path_111" data-name="Path 111" d="M101.326,194.215c-8.226,0-12.4,5.516-12.4,16.4,0,8.184,3.711,12.691,10.452,12.691a35.753,35.753,0,0,0,7.726-.858l.319-.075.292-4.475h-7.225c-3.607,0-5.437-2.572-5.437-7.645,0-4.83,1.171-10.587,6.747-10.587h7.163l.338-4.5-.367-.09a33.747,33.747,0,0,0-7.611-.857" transform="translate(-51.734 -112.984)" fill="#cf0010"/>
    <path id="Path_112" data-name="Path 112" d="M148.018,218.248c-.133-.141-.177-.446-.147-1.011l1.622-23.023H143.84l-1.617,22.961c-.15,2.157-.037,3.809,1,4.856.862.873,2.289,1.269,4.742,1.269.58,0,1.218-.023,1.918-.066l.391-.023.291-4.654h-.471a3.863,3.863,0,0,1-2.072-.309" transform="translate(-82.706 -112.984)" fill="#cf0010"/>
    <path id="Path_113" data-name="Path 113" d="M179.995,226.534a3.627,3.627,0,0,1-3.691,3.239,2.881,2.881,0,0,1-2.133-.788,2.017,2.017,0,0,1-.484-1.6l.987-14.176H169.02L168,227.723a6.436,6.436,0,0,0,1.433,4.954,5.926,5.926,0,0,0,4.529,1.675,8.182,8.182,0,0,0,5.809-2.187l.188,1.79h5.179l1.453-20.743h-5.652Z" transform="translate(-97.72 -124.035)" fill="#cf0010"/>
    <path id="Path_114" data-name="Path 114" d="M230.665,201.866a6.423,6.423,0,0,0-4.917,2l.664-9.653h-5.654L218.751,223.3h8.9c6.707,0,10.252-4.151,10.252-12,0-6.168-2.5-9.429-7.234-9.429m1.346,9.549c0,4.832-1.387,7.082-4.364,7.082h-2.9l.6-8.584a3.416,3.416,0,0,1,3.451-3.285c2.222,0,3.213,1.476,3.213,4.786" transform="translate(-127.258 -112.984)" fill="#cf0010"/>
    <path id="Path_115" data-name="Path 115" d="M305.062,202.012a21.679,21.679,0,0,0-3.446-.251c-6.578,0-10.054,4.205-10.054,12.16,0,6.048,2.556,9.379,7.2,9.379a6.575,6.575,0,0,0,5.137-2.146l.184,1.749h5.179l2.009-28.689h-5.653Zm-.306,4.606-.64,8.784a3.456,3.456,0,0,1-3.492,3.2c-2.224,0-3.173-1.412-3.173-4.722,0-5.023,1.358-7.263,4.4-7.263Z" transform="translate(-169.616 -112.984)" fill="#cf0010"/>
    <path id="Path_116" data-name="Path 116" d="M355.113,212.259c-7,0-10.849,4.277-10.849,12.041,0,6.213,3.078,9.5,8.9,9.5a30.865,30.865,0,0,0,7.131-.846l.32-.074.249-3.936h-7.421a3.062,3.062,0,0,1-2.3-.794,4.644,4.644,0,0,1-.995-3.247h6.112c4.332,0,6.717-2.259,6.717-6.36,0-3.127-2.434-6.281-7.869-6.281m2.179,6.759c0,.6-.228,1.979-2.338,1.979h-4.426c.43-1.878,1.522-3.881,4.227-3.881,1.753,0,2.537.956,2.537,1.9" transform="translate(-200.275 -123.481)" fill="#cf0010"/>
    <path id="Path_117" data-name="Path 117" d="M403.621,218.558a3.862,3.862,0,0,1-2.072-.309c-.133-.141-.177-.446-.148-1.011l1.622-23.023H397.37l-1.618,22.961c-.149,2.157-.037,3.808,1,4.856.862.873,2.289,1.269,4.742,1.269.579,0,1.217-.023,1.917-.066l.39-.023.293-4.654Z" transform="translate(-230.197 -112.984)" fill="#cf0010"/>
    <path id="Path_118" data-name="Path 118" d="M15.292,271.658a4.057,4.057,0,0,1-3.56-2.105,96.557,96.557,0,0,1-8.138-72.227,4.058,4.058,0,0,1,7.809,2.21,88.377,88.377,0,0,0,7.442,66.111,4.059,4.059,0,0,1-3.553,6.012" transform="translate(0 -113.075)" fill="#464545"/>
    <path id="Path_119" data-name="Path 119" d="M460.28,271.661a4.059,4.059,0,0,1-3.629-5.867c10.749-21.586,13.568-46.326,7.539-66.182a4.057,4.057,0,1,1,7.765-2.357c6.616,21.788,3.611,48.763-8.04,72.156a4.059,4.059,0,0,1-3.636,2.25" transform="translate(-265.408 -113.078)" fill="#464545"/>
    <path id="Path_120" data-name="Path 120" d="M159.255,27.275V18.509A18.53,18.53,0,0,0,140.746,0H103.958A18.53,18.53,0,0,0,85.45,18.509v8.775c-34.043,14.263-56,46.616-56,82.635a87.043,87.043,0,0,0,8.09,36.8,4.058,4.058,0,1,0,7.365-3.407,78.981,78.981,0,0,1-7.34-33.394c0-31.613,18.667-60.126,47.884-73.748v8.995a18.53,18.53,0,0,0,18.508,18.51h36.788a18.53,18.53,0,0,0,18.509-18.51V36.161c29.229,13.618,47.9,42.138,47.9,73.759a79.213,79.213,0,0,1-7.635,33.394,4.058,4.058,0,1,0,7.365,3.407,87.269,87.269,0,0,0,8.385-36.8c0-36.027-21.965-68.385-56.019-82.644M154.8,45.359a13.785,13.785,0,0,1-13.786,13.786H103.692A13.784,13.784,0,0,1,89.907,45.359V18.316A13.785,13.785,0,0,1,103.692,4.531h37.321A13.786,13.786,0,0,1,154.8,18.316Z" transform="translate(-17.133)" fill="#cf0010"/>
    <path id="Path_121" data-name="Path 121" d="M278.8,61.656a15.082,15.082,0,0,0-2.655.231l.258-2.938h8.533V55.185H272.177V65.737c0,.043,0,.083,0,.126l0,.142a20.956,20.956,0,0,1,5.538-.74c2.552,0,4.1.7,4.1,2.4,0,1.522-1.418,2.166-4,2.166a12.767,12.767,0,0,1-5.82-1.59,9.774,9.774,0,0,1-1.3,3.736,17.031,17.031,0,0,0,7.5,1.67c4.975,0,7.862-2.191,7.862-5.982,0-4.769-3.738-6.006-7.27-6.006" transform="translate(-157.48 -32.104)" fill="#181818"/>
    <path id="Path_122" data-name="Path 122" d="M242.521,55.185H246.8V65.6c0,5.853-2.577,7.992-8.12,8.017-5.465-.025-8.043-2.164-8.043-8.017V55.185h4.254V65.73c0,2.99,1.134,4.2,3.79,4.2,2.706,0,3.841-1.16,3.841-4.2Z" transform="translate(-134.173 -32.104)" fill="#cf0010"/>
    <path id="Path_123" data-name="Path 123" d="M210.1,69.467h-7.672V55.185h-4.28V73.231H212V73.1a8.237,8.237,0,0,1-1.892-3.63" transform="translate(-115.275 -32.104)" fill="#cf0010"/>
  </g>
</svg>
